# xmcd
#
# Track frame offsets:
#	150
#	22075
#	42242
#	60730
#	83492
#	103987
#	122735
#	148467
#	168865
#	189827
#	207817
#	227460
#	249490
#	270587
#
# Disc length: 3869 seconds
#
# Revision: 1
# Processed by: cddbd v1.5.1PL0 Copyright (c) Steve Scherf et al.
# Submitted via: CDex 1.50Beta5
#
DISCID=bd0f1b0e
DTITLE=吉幾三 - 吉幾三,堀内孝雄スペシャルコレクション1
DYEAR=1991
DGENRE=World
TTITLE0=吉幾三/酔歌
TTITLE1=吉幾三/津軽恋唄
TTITLE2=吉幾三/酒よ
TTITLE3=吉幾三/礼文島
TTITLE4=吉幾三/雪國
TTITLE5=吉幾三/望郷酒場
TTITLE6=吉幾三/と・も・子…
TTITLE7=堀内孝雄/冗談じゃねぇ
TTITLE8=堀内孝雄/野郎たちの挽歌
TTITLE9=堀内孝雄/泣かせて
TTITLE10=堀内孝雄/ガキの頃のように
TTITLE11=堀内孝雄/五番街のマリーへ
TTITLE12=堀内孝雄/川は泣いている
TTITLE13=堀内孝雄/愛しき日々
EXTD=
EXTT0=
EXTT1=
EXTT2=
EXTT3=
EXTT4=
EXTT5=
EXTT6=
EXTT7=
EXTT8=
EXTT9=
EXTT10=
EXTT11=
EXTT12=
EXTT13=
PLAYORDER=
